<svg xmlns="http://www.w3.org/2000/svg" width="427.38" height="165.086" viewBox="0 0 427.38 165.086">
  <g id="_0.2" data-name="0.2" transform="translate(-125.306 -196.91) scale(0.927 1)">
    <g id="Group_2" data-name="Group 2">
      <path id="Path_1" data-name="Path 1" d="M226.23,262.81l-7.59,5.66-.05,24.91,7.59-5.65Z" fill="#10083f"/>
      <path id="Path_2" data-name="Path 2" d="M247.77,246.76l-11.26,8.4-.08,37.24-17.87,13.31-.03,13.33,29.13-21.7Z" fill="#10083f"/>
      <path id="Path_3" data-name="Path 3" d="M248.38,222.69a14.37,14.37,0,0,0-8.34,2.76l-3.31,2.47-.26.19-36.25,27.02a10.182,10.182,0,0,0-4.36,8.12l-.14,64.07a9.669,9.669,0,0,0,2.11,6.01,15.263,15.263,0,0,1-5.67-.98,12.743,12.743,0,0,1-5.36-3.71,9.728,9.728,0,0,1-2.33-6.27l.14-64.07a10.224,10.224,0,0,1,4.36-8.12l36.4-27.13,3.42-2.55a14.412,14.412,0,0,1,8.64-2.77c.15,0,.32.02.48.03q.615.015,1.23.09h.01l1.89.85a2.353,2.353,0,0,1,.61.18l5.51,2.49c.05.04.09.09.14.13A13.2,13.2,0,0,1,248.38,222.69Z" fill="#10083f"/>
      <path id="Path_4" data-name="Path 4" d="M262.91,228.51a13.558,13.558,0,0,0-1.72-.52c-.51-.13-1.01-.22-1.53-.3a15.127,15.127,0,0,0-2.12-.16,14.316,14.316,0,0,0-8.63,2.77l-2.9,2.16H246l-36.92,27.51a11.3,11.3,0,0,0-3.22,3.67,9.409,9.409,0,0,0-1.14,4.45l-.14,64.07a9.643,9.643,0,0,0,2.06,5.96,12.731,12.731,0,0,0,5.62,4.02,14.864,14.864,0,0,0,14-1.79l39.82-29.67a10.182,10.182,0,0,0,4.36-8.12l.14-64.07C270.61,234.13,267.66,230.3,262.91,228.51Zm-6.37,73.68-38.03,28.34.03-11.48.03-13.33.03-12.33.05-24.92.08-.05,7.51-5.6,10.27-7.65,11.26-8.4,8.89-6.63Z" fill="#10083f"/>
      <path id="Path_5" data-name="Path 5" d="M170.02,324.4a15.306,15.306,0,0,0,7.73.8,9.929,9.929,0,0,1-3.51-7.49l.14-64.07a10.252,10.252,0,0,1,4.36-8.12h0l39.82-29.67a14.019,14.019,0,0,1,6.27-2.59,13.4,13.4,0,0,0-4.16-2.48,15.117,15.117,0,0,0-5.36-.98,14.325,14.325,0,0,0-8.63,2.78l-39.82,29.67a10.252,10.252,0,0,0-4.36,8.12l-.14,64.07C162.33,318.79,165.27,322.61,170.02,324.4Z" fill="#10083f"/>
      <g id="Group_1" data-name="Group 1">
        <path id="Path_6" data-name="Path 6" d="M256.67,240.13l-.14,61.77-31.51,23.43-6.43,3.51V326.3l.02-7.62.03-13.27.03-12.27.05-24.8,7.57-5.63,10.26-7.62,11.24-8.36Z" fill="#fbfbf7"/>
      </g>
      <path id="Path_7" data-name="Path 7" d="M246.38,264.84l-.06,28.53-14.55,10.82-2.97,1.62v-1.17l.01-3.52.01-6.13.01-5.67.03-11.45,3.49-2.6,4.74-3.52,5.19-3.86Z" fill="#f0b511"/>
      <path id="Path_8" data-name="Path 8" d="M261.62,230.7l-2.09,5.11a2.386,2.386,0,0,1-3.18,1.34l-10.33-4.68h-.01l-1.13-.51-7.22-3.28a.781.781,0,0,1-.2-.11,2.09,2.09,0,0,1-.73-.65,2.606,2.606,0,0,1-.34-2.59l2.09-5.11a2.39,2.39,0,0,1,2.56-1.52,2.353,2.353,0,0,1,.61.18l5.51,2.49.18.08,13,5.89c.03.01.05.03.08.04a2.263,2.263,0,0,1,.77.59,2.375,2.375,0,0,1,.46.82A2.678,2.678,0,0,1,261.62,230.7Z" fill="#10083f"/>
      <path id="Path_9" data-name="Path 9" d="M239.34,220.66l-2.06,5.04a2.423,2.423,0,0,1-3.23,1.36l-18.62-8.43a2.645,2.645,0,0,1-1.29-3.4l2.06-5.04a2.423,2.423,0,0,1,3.23-1.36l18.62,8.43A2.636,2.636,0,0,1,239.34,220.66Z" fill="#10083f"/>
      <path id="Path_10" data-name="Path 10" d="M262.91,228.51l-1.26.3-15.63,3.66h-.01l-1.13-.51-7.41-3.38-1-.46-11.08-5.05-10.24-4.68h-.01l-.26-.12-9.5-4.75s.99-1.35,5.23-3.3a17.136,17.136,0,0,1,7.91-1.62l20.38,9.13.26.12h.01l1.89.85,6.27,2.81,13.11,5.88Z" fill="#10083f"/>
      <path id="Path_11" data-name="Path 11" d="M247.35,221.46l-.03.05-6.27-2.81a2.353,2.353,0,0,1,.61.18l5.51,2.49Z" fill="#10083f"/>
    </g>
    <text id="appixo" transform="translate(282.057 306.129)" fill="#10083f" font-size="117.85" font-family="BerlinSansFB-Reg, Berlin Sans FB"><tspan x="0" y="0">appixo</tspan></text>
    <text id="Find_Your_Need_" data-name="Find Your Need!" transform="translate(319.881 352.303)" font-size="25" font-family="BellMT, Bell MT"><tspan x="0" y="0">Find Your Need!</tspan></text>
  </g>
</svg>
